<?xml version="1.0" encoding="UTF-8" standalone="no"?>
<svg width="499px" height="499px" viewBox="0 0 499 499" version="1.1" xmlns="http://www.w3.org/2000/svg" xmlns:xlink="http://www.w3.org/1999/xlink">
    <title>remove</title>
    <defs></defs>
    <g id="Page-1" stroke="none" stroke-width="1" fill="none" fill-rule="evenodd">
        <g id="remove" fill="#5F80BF">
            <g id="Group">
                <path d="M249.142,0.652 C111.609,0.652 0.142,112.119 0.142,249.652 C0.142,387.186 111.609,498.652 249.142,498.652 C386.676,498.652 498.142,387.186 498.142,249.652 C498.142,112.12 386.675,0.652 249.142,0.652 L249.142,0.652 Z M249.142,478.732 C122.833,478.732 20.062,375.962 20.062,249.652 C20.062,123.343 122.833,20.572 249.142,20.572 C375.451,20.572 478.222,123.343 478.222,249.652 C478.222,375.962 375.45,478.732 249.142,478.732 L249.142,478.732 Z" id="Shape"></path>
                <rect id="Rectangle-path" x="120.323" y="239.692" width="258.298" height="19.92"></rect>
            </g>
        </g>
    </g>
</svg>